<?xml version="1.0" encoding="UTF-8"?>
<svg id="Layer_2" data-name="Layer 2" xmlns="http://www.w3.org/2000/svg" viewBox="0 0 637.49 303.98">
  <defs>
    <style>
      .cls-1 {
        fill: #acbddd;
      }

      .cls-1, .cls-2 {
        stroke-width: 0px;
      }

      .cls-2 {
        fill: #0e209e;
      }
    </style>
  </defs>
  <g id="Layer_1-2" data-name="Layer 1">
    <g>
      <g>
        <path class="cls-2" d="M23.27,279.58L0,194.16h14.71l17.99,66.75,19.4-66.75h12.93l19.28,66.75,17.94-66.75h13.82l-23.22,85.42h-16.23l-18.08-62.58-18.19,62.58h-17.1Z"/>
        <path class="cls-2" d="M135.39,206.91c-1.67,1.67-3.64,2.5-5.92,2.5s-4.25-.83-5.92-2.5c-1.67-1.67-2.5-3.64-2.5-5.92s.81-4.25,2.44-5.92c1.63-1.67,3.62-2.5,5.98-2.5s4.35.84,5.98,2.5c1.63,1.67,2.44,3.64,2.44,5.92s-.83,4.25-2.5,5.92ZM122.88,279.58v-61.02h13.18v61.02h-13.18Z"/>
        <path class="cls-2" d="M183.53,231.25h-15.13v29.29c0,2.52.57,4.33,1.71,5.43,1.14,1.1,2.83,1.71,5.06,1.83,2.24.12,5.02.1,8.36-.06v11.84c-10.09,1.22-17.33.35-21.72-2.62-4.39-2.97-6.59-8.44-6.59-16.41v-29.29h-11.23v-12.69h11.23v-13.18l13.18-3.9v17.08h15.13v12.69Z"/>
        <path class="cls-2" d="M225.76,216.98c7,0,12.65,2.24,16.96,6.71,4.31,4.48,6.47,10.62,6.47,18.43v37.46h-13.18v-36.12c0-4.55-1.22-8.05-3.66-10.49-2.44-2.44-5.78-3.66-10.01-3.66-4.64,0-8.38,1.45-11.23,4.33-2.85,2.89-4.27,7.3-4.27,13.24v32.7h-13.18v-85.42h13.18v32.22c3.98-6.26,10.29-9.4,18.91-9.4Z"/>
        <path class="cls-2" d="M309.84,218.56h13.18v61.02h-13.18v-8.79c-4.96,6.92-12.08,10.37-21.36,10.37-8.38,0-15.54-3.11-21.48-9.34-5.94-6.22-8.91-13.81-8.91-22.76s2.97-16.64,8.91-22.82c5.94-6.18,13.1-9.27,21.48-9.27,9.27,0,16.39,3.42,21.36,10.25v-8.66ZM276.77,263.04c3.66,3.7,8.26,5.55,13.79,5.55s10.13-1.85,13.79-5.55c3.66-3.7,5.49-8.36,5.49-13.97s-1.83-10.27-5.49-13.97c-3.66-3.7-8.26-5.55-13.79-5.55s-10.13,1.85-13.79,5.55c-3.66,3.7-5.49,8.36-5.49,13.97s1.83,10.27,5.49,13.97Z"/>
        <path class="cls-2" d="M384.88,218.56h13.18v85.42h-13.18v-33.07c-4.96,6.83-12.08,10.25-21.36,10.25-8.38,0-15.54-3.09-21.48-9.27-5.94-6.18-8.91-13.79-8.91-22.82s2.97-16.54,8.91-22.76c5.94-6.22,13.1-9.34,21.48-9.34,9.27,0,16.39,3.46,21.36,10.37v-8.79ZM351.81,263.04c3.66,3.7,8.26,5.55,13.79,5.55s10.13-1.85,13.79-5.55c3.66-3.7,5.49-8.36,5.49-13.97s-1.83-10.27-5.49-13.97c-3.66-3.7-8.26-5.55-13.79-5.55s-10.13,1.85-13.79,5.55c-3.66,3.7-5.49,8.36-5.49,13.97s1.83,10.27,5.49,13.97Z"/>
        <path class="cls-1" d="M434.18,279.58l-29.65-85.42h15.38l22.69,68.35,22.82-68.35h15.25l-29.65,85.42h-16.84Z"/>
        <path class="cls-1" d="M521.56,194.16c11.72,0,21.46,4.11,29.23,12.32,7.77,8.22,11.65,18.35,11.65,30.39s-3.89,22.07-11.65,30.33c-7.77,8.26-17.51,12.39-29.23,12.39h-33.56v-85.42h33.56ZM521.56,266.15c8.05,0,14.62-2.77,19.71-8.3,5.08-5.53,7.63-12.53,7.63-20.99s-2.54-15.56-7.63-21.05c-5.09-5.49-11.65-8.24-19.71-8.24h-19.52v58.58h19.52Z"/>
        <path class="cls-1" d="M622.11,279.58l-18.05-31.12h-16.61v31.12h-14.03v-85.42h34.17c7.65,0,14.13,2.67,19.46,7.99,5.33,5.33,7.99,11.82,7.99,19.46,0,5.45-1.57,10.43-4.7,14.95-3.13,4.52-7.22,7.79-12.26,9.82l19.4,33.19h-15.38ZM587.45,207.34v28.56h20.14c3.74,0,6.91-1.38,9.52-4.15,2.6-2.76,3.9-6.14,3.9-10.13s-1.3-7.36-3.9-10.13c-2.61-2.76-5.78-4.15-9.52-4.15h-20.14Z"/>
      </g>
      <g>
        <path class="cls-1" d="M409.68,152.96l44.93-68.88c2.26-3.48,2.26-7.78,0-11.25L409.77,4.07c-3.54-5.42-12.38-5.42-15.92,0l-48.52,74.38,48.67,74.61c3.55,5.27,12.21,5.24,15.68-.1Z"/>
        <path class="cls-2" d="M296.67,153.06s.05-.07.07-.1l48.59-74.51L297.79,5.62C295.51,2.15,291.32,0,286.78,0h-105.6s99.81,152.96,99.81,152.96c3.47,5.34,12.13,5.37,15.68.1Z"/>
      </g>
    </g>
  </g>
</svg>